<?xml version="1.0" encoding="utf-8"?><svg xmlns="http://www.w3.org/2000/svg" width="1536" height="897"><g id="Vidin"><polygon points="129.97183711731233,37.519637573375235,162.46479639664042,18.759818786687617,194.9577556759685,37.519637573375235,194.9577556759685,75.03927514675047,162.46479639664042,93.79909393343809,129.97183711731233,75.03927514675047,129.97183711731233,37.519637573375235" fill="rgb(0, 125, 181)"/><polygon points="97.47887783798424,93.79909393343809,129.97183711731233,75.03927514675047,162.46479639664042,93.79909393343809,162.46479639664042,131.31873150681332,129.97183711731233,150.07855029350094,97.47887783798424,131.31873150681332,97.47887783798424,93.79909393343809" fill="rgb(0, 125, 181)"/><polygon points="129.97183711731233,150.07855029350094,162.46479639664042,131.31873150681332,194.9577556759685,150.07855029350094,194.9577556759685,187.59818786687617,162.46479639664042,206.3580066535638,129.97183711731233,187.59818786687617,129.97183711731233,150.07855029350094" fill="rgb(0, 125, 181)"/><polygon points="194.95775567596849,37.519637573375235,227.45071495529658,18.759818786687617,259.94367423462467,37.519637573375235,259.94367423462467,75.03927514675047,227.45071495529658,93.79909393343809,194.95775567596849,75.03927514675047,194.95775567596849,37.519637573375235" fill="rgb(0, 125, 181)"/><polygon points="162.4647963966404,93.79909393343809,194.95775567596849,75.03927514675047,227.45071495529658,93.79909393343809,227.45071495529658,131.31873150681332,194.95775567596849,150.07855029350094,162.4647963966404,131.31873150681332,162.4647963966404,93.79909393343809" fill="rgb(0, 125, 181)"/></g><g id="Pernik"><polygon points="97.47887783798424,431.4758320938152,129.97183711731233,412.7160133071276,162.46479639664042,431.4758320938152,162.46479639664042,468.99546966719043,129.97183711731233,487.75528845387805,97.47887783798424,468.99546966719043,97.47887783798424,431.4758320938152" fill="rgb(0, 0, 255)"/><polygon points="129.97183711731233,487.75528845387805,162.46479639664042,468.99546966719043,194.9577556759685,487.75528845387805,194.9577556759685,525.2749260272533,162.46479639664042,544.034744813941,129.97183711731233,525.2749260272533,129.97183711731233,487.75528845387805" fill="rgb(0, 0, 255)"/><polygon points="162.4647963966404,431.4758320938152,194.95775567596849,412.7160133071276,227.45071495529658,431.4758320938152,227.45071495529658,468.99546966719043,194.95775567596849,487.75528845387805,162.4647963966404,468.99546966719043,162.4647963966404,431.4758320938152" fill="rgb(0, 0, 255)"/><polygon points="194.95775567596849,487.75528845387805,227.45071495529658,468.99546966719043,259.94367423462467,487.75528845387805,259.94367423462467,525.2749260272533,227.45071495529658,544.034744813941,194.95775567596849,525.2749260272533,194.95775567596849,487.75528845387805" fill="rgb(0, 0, 255)"/></g><g id="Kyustendil"><polygon points="97.47887783798424,544.034744813941,129.97183711731233,525.2749260272533,162.46479639664042,544.034744813941,162.46479639664042,581.5543823873161,129.97183711731233,600.3142011740038,97.47887783798424,581.5543823873161,97.47887783798424,544.034744813941" fill="rgb(149, 0, 58)"/><polygon points="129.97183711731233,600.3142011740038,162.46479639664042,581.5543823873162,194.9577556759685,600.3142011740038,194.9577556759685,637.8338387473791,162.46479639664042,656.5936575340667,129.97183711731233,637.8338387473791,129.97183711731233,600.3142011740038" fill="rgb(149, 0, 58)"/><polygon points="162.4647963966404,544.034744813941,194.95775567596849,525.2749260272533,227.45071495529658,544.034744813941,227.45071495529658,581.5543823873161,194.95775567596849,600.3142011740038,162.4647963966404,581.5543823873161,162.4647963966404,544.034744813941" fill="rgb(149, 0, 58)"/><polygon points="194.95775567596849,600.3142011740038,227.45071495529658,581.5543823873162,259.94367423462467,600.3142011740038,259.94367423462467,637.8338387473791,227.45071495529658,656.5936575340667,194.95775567596849,637.8338387473791,194.95775567596849,600.3142011740038" fill="rgb(149, 0, 58)"/><polygon points="227.45071495529658,544.034744813941,259.94367423462467,525.2749260272533,292.43663351395276,544.034744813941,292.43663351395276,581.5543823873161,259.94367423462467,600.3142011740038,227.45071495529658,581.5543823873161,227.45071495529658,544.034744813941" fill="rgb(149, 0, 58)"/><polygon points="259.94367423462467,600.3142011740038,292.43663351395276,581.5543823873162,324.92959279328085,600.3142011740038,324.92959279328085,637.8338387473791,292.43663351395276,656.5936575340667,259.94367423462467,637.8338387473791,259.94367423462467,600.3142011740038" fill="rgb(149, 0, 58)"/></g><g id="Montana"><polygon points="194.95775567596849,150.07855029350094,227.45071495529658,131.31873150681332,259.94367423462467,150.07855029350094,259.94367423462467,187.59818786687617,227.45071495529658,206.3580066535638,194.95775567596849,187.59818786687617,194.95775567596849,150.07855029350094" fill="rgb(0, 100, 1)"/><polygon points="162.4647963966404,206.3580066535638,194.95775567596849,187.59818786687617,227.45071495529658,206.3580066535638,227.45071495529658,243.87764422693903,194.95775567596849,262.63746301362664,162.4647963966404,243.87764422693903,162.4647963966404,206.3580066535638" fill="rgb(0, 100, 1)"/><polygon points="194.95775567596849,262.63746301362664,227.45071495529658,243.87764422693903,259.94367423462467,262.63746301362664,259.94367423462467,300.1571005870019,227.45071495529658,318.9169193736895,194.95775567596849,300.1571005870019,194.95775567596849,262.63746301362664" fill="rgb(0, 100, 1)"/><polygon points="259.94367423462467,150.07855029350094,292.43663351395276,131.31873150681332,324.92959279328085,150.07855029350094,324.92959279328085,187.59818786687617,292.43663351395276,206.3580066535638,259.94367423462467,187.59818786687617,259.94367423462467,150.07855029350094" fill="rgb(0, 100, 1)"/><polygon points="227.45071495529658,206.3580066535638,259.94367423462467,187.59818786687617,292.43663351395276,206.3580066535638,292.43663351395276,243.87764422693903,259.94367423462467,262.63746301362664,227.45071495529658,243.87764422693903,227.45071495529658,206.3580066535638" fill="rgb(0, 100, 1)"/><polygon points="259.94367423462467,262.63746301362664,292.43663351395276,243.87764422693903,324.92959279328085,262.63746301362664,324.92959279328085,300.1571005870019,292.43663351395276,318.9169193736895,259.94367423462467,300.1571005870019,259.94367423462467,262.63746301362664" fill="rgb(0, 100, 1)"/><polygon points="292.43663351395276,93.79909393343809,324.92959279328085,75.03927514675047,357.42255207260894,93.79909393343809,357.42255207260894,131.31873150681332,324.92959279328085,150.07855029350094,292.43663351395276,131.31873150681332,292.43663351395276,93.79909393343809" fill="rgb(0, 100, 1)"/><polygon points="324.92959279328085,150.07855029350094,357.42255207260894,131.31873150681332,389.915511351937,150.07855029350094,389.915511351937,187.59818786687617,357.42255207260894,206.3580066535638,324.92959279328085,187.59818786687617,324.92959279328085,150.07855029350094" fill="rgb(0, 100, 1)"/></g><g id="Sofia-oblast"><polygon points="194.95775567596849,375.19637573375235,227.45071495529658,356.43655694706473,259.94367423462467,375.19637573375235,259.94367423462467,412.7160133071276,227.45071495529658,431.4758320938152,194.95775567596849,412.7160133071276,194.95775567596849,375.19637573375235" fill="rgb(0, 255, 0)"/><polygon points="227.45071495529658,318.9169193736895,259.94367423462467,300.1571005870019,292.43663351395276,318.9169193736895,292.43663351395276,356.43655694706473,259.94367423462467,375.19637573375235,227.45071495529658,356.43655694706473,227.45071495529658,318.9169193736895" fill="rgb(0, 255, 0)"/><polygon points="259.94367423462467,375.19637573375235,292.43663351395276,356.43655694706473,324.92959279328085,375.19637573375235,324.92959279328085,412.7160133071276,292.43663351395276,431.4758320938152,259.94367423462467,412.7160133071276,259.94367423462467,375.19637573375235" fill="rgb(0, 255, 0)"/><polygon points="292.43663351395276,318.9169193736895,324.92959279328085,300.1571005870019,357.42255207260894,318.9169193736895,357.42255207260894,356.43655694706473,324.92959279328085,375.19637573375235,292.43663351395276,356.43655694706473,292.43663351395276,318.9169193736895" fill="rgb(0, 255, 0)"/><polygon points="324.92959279328085,375.19637573375235,357.42255207260894,356.43655694706473,389.915511351937,375.19637573375235,389.915511351937,412.7160133071276,357.42255207260894,431.4758320938152,324.92959279328085,412.7160133071276,324.92959279328085,375.19637573375235" fill="rgb(0, 255, 0)"/><polygon points="324.92959279328085,487.75528845387805,357.42255207260894,468.99546966719043,389.915511351937,487.75528845387805,389.915511351937,525.2749260272533,357.42255207260894,544.034744813941,324.92959279328085,525.2749260272533,324.92959279328085,487.75528845387805" fill="rgb(0, 255, 0)"/><polygon points="292.43663351395276,544.034744813941,324.92959279328085,525.2749260272533,357.42255207260894,544.034744813941,357.42255207260894,581.5543823873161,324.92959279328085,600.3142011740038,292.43663351395276,581.5543823873161,292.43663351395276,544.034744813941" fill="rgb(0, 255, 0)"/><polygon points="324.92959279328085,600.3142011740038,357.42255207260894,581.5543823873162,389.915511351937,600.3142011740038,389.915511351937,637.8338387473791,357.42255207260894,656.5936575340667,324.92959279328085,637.8338387473791,324.92959279328085,600.3142011740038" fill="rgb(0, 255, 0)"/><polygon points="357.4225520726089,318.9169193736895,389.91551135193697,300.1571005870019,422.40847063126506,318.9169193736895,422.40847063126506,356.43655694706473,389.91551135193697,375.19637573375235,357.4225520726089,356.43655694706473,357.4225520726089,318.9169193736895" fill="rgb(0, 255, 0)"/><polygon points="389.91551135193697,375.19637573375235,422.40847063126506,356.43655694706473,454.90142991059315,375.19637573375235,454.90142991059315,412.7160133071276,422.40847063126506,431.4758320938152,389.91551135193697,412.7160133071276,389.91551135193697,375.19637573375235" fill="rgb(0, 255, 0)"/><polygon points="357.4225520726089,431.4758320938152,389.91551135193697,412.7160133071276,422.40847063126506,431.4758320938152,422.40847063126506,468.99546966719043,389.91551135193697,487.75528845387805,357.4225520726089,468.99546966719043,357.4225520726089,431.4758320938152" fill="rgb(0, 255, 0)"/><polygon points="357.4225520726089,544.034744813941,389.91551135193697,525.2749260272533,422.40847063126506,544.034744813941,422.40847063126506,581.5543823873161,389.91551135193697,600.3142011740038,357.4225520726089,581.5543823873161,357.4225520726089,544.034744813941" fill="rgb(0, 255, 0)"/><polygon points="422.40847063126506,431.4758320938152,454.90142991059315,412.7160133071276,487.39438918992124,431.4758320938152,487.39438918992124,468.99546966719043,454.90142991059315,487.75528845387805,422.40847063126506,468.99546966719043,422.40847063126506,431.4758320938152" fill="rgb(0, 255, 0)"/></g><g id="Blagoevgrad"><polygon points="162.4647963966404,656.5936575340666,194.95775567596849,637.833838747379,227.45071495529658,656.5936575340666,227.45071495529658,694.1132951074419,194.95775567596849,712.8731138941295,162.4647963966404,694.1132951074419,162.4647963966404,656.5936575340666" fill="rgb(122, 71, 130)"/><polygon points="194.95775567596849,712.8731138941293,227.45071495529658,694.1132951074418,259.94367423462467,712.8731138941293,259.94367423462467,750.3927514675047,227.45071495529658,769.1525702541923,194.95775567596849,750.3927514675047,194.95775567596849,712.8731138941293" fill="rgb(122, 71, 130)"/><polygon points="194.95775567596849,825.4320266142552,227.45071495529658,806.6722078275676,259.94367423462467,825.4320266142552,259.94367423462467,862.9516641876305,227.45071495529658,881.7114829743181,194.95775567596849,862.9516641876305,194.95775567596849,825.4320266142552" fill="rgb(122, 71, 130)"/><polygon points="227.45071495529658,656.5936575340666,259.94367423462467,637.833838747379,292.43663351395276,656.5936575340666,292.43663351395276,694.1132951074419,259.94367423462467,712.8731138941295,227.45071495529658,694.1132951074419,227.45071495529658,656.5936575340666" fill="rgb(122, 71, 130)"/><polygon points="259.94367423462467,712.8731138941293,292.43663351395276,694.1132951074418,324.92959279328085,712.8731138941293,324.92959279328085,750.3927514675047,292.43663351395276,769.1525702541923,259.94367423462467,750.3927514675047,259.94367423462467,712.8731138941293" fill="rgb(122, 71, 130)"/><polygon points="227.45071495529658,769.1525702541924,259.94367423462467,750.3927514675047,292.43663351395276,769.1525702541924,292.43663351395276,806.6722078275675,259.94367423462467,825.4320266142552,227.45071495529658,806.6722078275675,227.45071495529658,769.1525702541924" fill="rgb(122, 71, 130)"/><polygon points="259.94367423462467,825.4320266142552,292.43663351395276,806.6722078275676,324.92959279328085,825.4320266142552,324.92959279328085,862.9516641876305,292.43663351395276,881.7114829743181,259.94367423462467,862.9516641876305,259.94367423462467,825.4320266142552" fill="rgb(122, 71, 130)"/><polygon points="292.43663351395276,656.5936575340666,324.92959279328085,637.833838747379,357.42255207260894,656.5936575340666,357.42255207260894,694.1132951074419,324.92959279328085,712.8731138941295,292.43663351395276,694.1132951074419,292.43663351395276,656.5936575340666" fill="rgb(122, 71, 130)"/><polygon points="324.92959279328085,712.8731138941293,357.42255207260894,694.1132951074418,389.915511351937,712.8731138941293,389.915511351937,750.3927514675047,357.42255207260894,769.1525702541923,324.92959279328085,750.3927514675047,324.92959279328085,712.8731138941293" fill="rgb(122, 71, 130)"/><polygon points="292.43663351395276,769.1525702541924,324.92959279328085,750.3927514675047,357.42255207260894,769.1525702541924,357.42255207260894,806.6722078275675,324.92959279328085,825.4320266142552,292.43663351395276,806.6722078275675,292.43663351395276,769.1525702541924" fill="rgb(122, 71, 130)"/><polygon points="324.92959279328085,825.4320266142552,357.42255207260894,806.6722078275676,389.915511351937,825.4320266142552,389.915511351937,862.9516641876305,357.42255207260894,881.7114829743181,324.92959279328085,862.9516641876305,324.92959279328085,825.4320266142552" fill="rgb(122, 71, 130)"/><polygon points="389.91551135193697,712.8731138941293,422.40847063126506,694.1132951074418,454.90142991059315,712.8731138941293,454.90142991059315,750.3927514675047,422.40847063126506,769.1525702541923,389.91551135193697,750.3927514675047,389.91551135193697,712.8731138941293" fill="rgb(122, 71, 130)"/><polygon points="357.4225520726089,769.1525702541924,389.91551135193697,750.3927514675047,422.40847063126506,769.1525702541924,422.40847063126506,806.6722078275675,389.91551135193697,825.4320266142552,357.4225520726089,806.6722078275675,357.4225520726089,769.1525702541924" fill="rgb(122, 71, 130)"/><polygon points="422.40847063126506,769.1525702541924,454.90142991059315,750.3927514675047,487.39438918992124,769.1525702541924,487.39438918992124,806.6722078275675,454.90142991059315,825.4320266142552,422.40847063126506,806.6722078275675,422.40847063126506,769.1525702541924" fill="rgb(122, 71, 130)"/></g><g id="Sofia-grad"><polygon points="227.45071495529658,431.4758320938152,259.94367423462467,412.7160133071276,292.43663351395276,431.4758320938152,292.43663351395276,468.99546966719043,259.94367423462467,487.75528845387805,227.45071495529658,468.99546966719043,227.45071495529658,431.4758320938152" fill="rgb(232, 94, 190)"/><polygon points="259.94367423462467,487.75528845387805,292.43663351395276,468.99546966719043,324.92959279328085,487.75528845387805,324.92959279328085,525.2749260272533,292.43663351395276,544.034744813941,259.94367423462467,525.2749260272533,259.94367423462467,487.75528845387805" fill="rgb(232, 94, 190)"/><polygon points="292.43663351395276,431.4758320938152,324.92959279328085,412.7160133071276,357.42255207260894,431.4758320938152,357.42255207260894,468.99546966719043,324.92959279328085,487.75528845387805,292.43663351395276,468.99546966719043,292.43663351395276,431.4758320938152" fill="rgb(232, 94, 190)"/></g><g id="Vratsa"><polygon points="292.43663351395276,206.3580066535638,324.92959279328085,187.59818786687617,357.42255207260894,206.3580066535638,357.42255207260894,243.87764422693903,324.92959279328085,262.63746301362664,292.43663351395276,243.87764422693903,292.43663351395276,206.3580066535638" fill="rgb(1, 0, 103)"/><polygon points="324.92959279328085,262.63746301362664,357.42255207260894,243.87764422693903,389.915511351937,262.63746301362664,389.915511351937,300.1571005870019,357.42255207260894,318.9169193736895,324.92959279328085,300.1571005870019,324.92959279328085,262.63746301362664" fill="rgb(1, 0, 103)"/><polygon points="389.91551135193697,150.07855029350094,422.40847063126506,131.31873150681332,454.90142991059315,150.07855029350094,454.90142991059315,187.59818786687617,422.40847063126506,206.3580066535638,389.91551135193697,187.59818786687617,389.91551135193697,150.07855029350094" fill="rgb(1, 0, 103)"/><polygon points="357.4225520726089,206.3580066535638,389.91551135193697,187.59818786687617,422.40847063126506,206.3580066535638,422.40847063126506,243.87764422693903,389.91551135193697,262.63746301362664,357.4225520726089,243.87764422693903,357.4225520726089,206.3580066535638" fill="rgb(1, 0, 103)"/><polygon points="389.91551135193697,262.63746301362664,422.40847063126506,243.87764422693903,454.90142991059315,262.63746301362664,454.90142991059315,300.1571005870019,422.40847063126506,318.9169193736895,389.91551135193697,300.1571005870019,389.91551135193697,262.63746301362664" fill="rgb(1, 0, 103)"/><polygon points="454.90142991059315,150.07855029350094,487.39438918992124,131.31873150681332,519.8873484692493,150.07855029350094,519.8873484692493,187.59818786687617,487.39438918992124,206.3580066535638,454.90142991059315,187.59818786687617,454.90142991059315,150.07855029350094" fill="rgb(1, 0, 103)"/><polygon points="422.40847063126506,206.3580066535638,454.90142991059315,187.59818786687617,487.39438918992124,206.3580066535638,487.39438918992124,243.87764422693903,454.90142991059315,262.63746301362664,422.40847063126506,243.87764422693903,422.40847063126506,206.3580066535638" fill="rgb(1, 0, 103)"/></g><g id="Pazardzhik"><polygon points="389.91551135193697,487.75528845387805,422.40847063126506,468.99546966719043,454.90142991059315,487.75528845387805,454.90142991059315,525.2749260272533,422.40847063126506,544.034744813941,389.91551135193697,525.2749260272533,389.91551135193697,487.75528845387805" fill="rgb(95, 173, 78)"/><polygon points="389.91551135193697,600.3142011740038,422.40847063126506,581.5543823873162,454.90142991059315,600.3142011740038,454.90142991059315,637.8338387473791,422.40847063126506,656.5936575340667,389.91551135193697,637.8338387473791,389.91551135193697,600.3142011740038" fill="rgb(95, 173, 78)"/><polygon points="357.4225520726089,656.5936575340666,389.91551135193697,637.833838747379,422.40847063126506,656.5936575340666,422.40847063126506,694.1132951074419,389.91551135193697,712.8731138941295,357.4225520726089,694.1132951074419,357.4225520726089,656.5936575340666" fill="rgb(95, 173, 78)"/><polygon points="454.90142991059315,487.75528845387805,487.39438918992124,468.99546966719043,519.8873484692493,487.75528845387805,519.8873484692493,525.2749260272533,487.39438918992124,544.034744813941,454.90142991059315,525.2749260272533,454.90142991059315,487.75528845387805" fill="rgb(95, 173, 78)"/><polygon points="422.40847063126506,544.034744813941,454.90142991059315,525.2749260272533,487.39438918992124,544.034744813941,487.39438918992124,581.5543823873161,454.90142991059315,600.3142011740038,422.40847063126506,581.5543823873161,422.40847063126506,544.034744813941" fill="rgb(95, 173, 78)"/><polygon points="454.90142991059315,600.3142011740038,487.39438918992124,581.5543823873162,519.8873484692493,600.3142011740038,519.8873484692493,637.8338387473791,487.39438918992124,656.5936575340667,454.90142991059315,637.8338387473791,454.90142991059315,600.3142011740038" fill="rgb(95, 173, 78)"/><polygon points="422.40847063126506,656.5936575340666,454.90142991059315,637.833838747379,487.39438918992124,656.5936575340666,487.39438918992124,694.1132951074419,454.90142991059315,712.8731138941295,422.40847063126506,694.1132951074419,422.40847063126506,656.5936575340666" fill="rgb(95, 173, 78)"/><polygon points="454.90142991059315,712.8731138941293,487.39438918992124,694.1132951074418,519.8873484692493,712.8731138941293,519.8873484692493,750.3927514675047,487.39438918992124,769.1525702541923,454.90142991059315,750.3927514675047,454.90142991059315,712.8731138941293" fill="rgb(95, 173, 78)"/><polygon points="487.39438918992124,544.034744813941,519.8873484692493,525.2749260272533,552.3803077485774,544.034744813941,552.3803077485774,581.5543823873161,519.8873484692493,600.3142011740038,487.39438918992124,581.5543823873161,487.39438918992124,544.034744813941" fill="rgb(95, 173, 78)"/><polygon points="519.8873484692493,600.3142011740038,552.3803077485774,581.5543823873162,584.8732670279054,600.3142011740038,584.8732670279054,637.8338387473791,552.3803077485774,656.5936575340667,519.8873484692493,637.8338387473791,519.8873484692493,600.3142011740038" fill="rgb(95, 173, 78)"/><polygon points="487.39438918992124,656.5936575340666,519.8873484692493,637.833838747379,552.3803077485774,656.5936575340666,552.3803077485774,694.1132951074419,519.8873484692493,712.8731138941295,487.39438918992124,694.1132951074419,487.39438918992124,656.5936575340666" fill="rgb(95, 173, 78)"/></g><g id="Pleven"><polygon points="454.90142991059315,262.63746301362664,487.39438918992124,243.87764422693903,519.8873484692493,262.63746301362664,519.8873484692493,300.1571005870019,487.39438918992124,318.9169193736895,454.90142991059315,300.1571005870019,454.90142991059315,262.63746301362664" fill="rgb(255, 166, 254)"/><polygon points="519.8873484692493,150.07855029350094,552.3803077485774,131.31873150681332,584.8732670279054,150.07855029350094,584.8732670279054,187.59818786687617,552.3803077485774,206.3580066535638,519.8873484692493,187.59818786687617,519.8873484692493,150.07855029350094" fill="rgb(255, 166, 254)"/><polygon points="487.39438918992124,206.3580066535638,519.8873484692493,187.59818786687617,552.3803077485774,206.3580066535638,552.3803077485774,243.87764422693903,519.8873484692493,262.63746301362664,487.39438918992124,243.87764422693903,487.39438918992124,206.3580066535638" fill="rgb(255, 166, 254)"/><polygon points="519.8873484692493,262.63746301362664,552.3803077485774,243.87764422693903,584.8732670279054,262.63746301362664,584.8732670279054,300.1571005870019,552.3803077485774,318.9169193736895,519.8873484692493,300.1571005870019,519.8873484692493,262.63746301362664" fill="rgb(255, 166, 254)"/><polygon points="584.8732670279055,150.07855029350094,617.3662263072335,131.31873150681332,649.8591855865616,150.07855029350094,649.8591855865616,187.59818786687617,617.3662263072335,206.3580066535638,584.8732670279055,187.59818786687617,584.8732670279055,150.07855029350094" fill="rgb(255, 166, 254)"/><polygon points="552.3803077485775,206.3580066535638,584.8732670279055,187.59818786687617,617.3662263072335,206.3580066535638,617.3662263072335,243.87764422693903,584.8732670279055,262.63746301362664,552.3803077485775,243.87764422693903,552.3803077485775,206.3580066535638" fill="rgb(255, 166, 254)"/><polygon points="649.8591855865617,150.07855029350094,682.3521448658897,131.31873150681332,714.8451041452178,150.07855029350094,714.8451041452178,187.59818786687617,682.3521448658897,206.3580066535638,649.8591855865617,187.59818786687617,649.8591855865617,150.07855029350094" fill="rgb(255, 166, 254)"/><polygon points="617.3662263072337,206.3580066535638,649.8591855865617,187.59818786687617,682.3521448658897,206.3580066535638,682.3521448658897,243.87764422693903,649.8591855865617,262.63746301362664,617.3662263072337,243.87764422693903,617.3662263072337,206.3580066535638" fill="rgb(255, 166, 254)"/></g><g id="Lovech"><polygon points="422.40847063126506,318.9169193736895,454.90142991059315,300.1571005870019,487.39438918992124,318.9169193736895,487.39438918992124,356.43655694706473,454.90142991059315,375.19637573375235,422.40847063126506,356.43655694706473,422.40847063126506,318.9169193736895" fill="rgb(1, 255, 254)"/><polygon points="454.90142991059315,375.19637573375235,487.39438918992124,356.43655694706473,519.8873484692493,375.19637573375235,519.8873484692493,412.7160133071276,487.39438918992124,431.4758320938152,454.90142991059315,412.7160133071276,454.90142991059315,375.19637573375235" fill="rgb(1, 255, 254)"/><polygon points="487.39438918992124,318.9169193736895,519.8873484692493,300.1571005870019,552.3803077485774,318.9169193736895,552.3803077485774,356.43655694706473,519.8873484692493,375.19637573375235,487.39438918992124,356.43655694706473,487.39438918992124,318.9169193736895" fill="rgb(1, 255, 254)"/><polygon points="519.8873484692493,375.19637573375235,552.3803077485774,356.43655694706473,584.8732670279054,375.19637573375235,584.8732670279054,412.7160133071276,552.3803077485774,431.4758320938152,519.8873484692493,412.7160133071276,519.8873484692493,375.19637573375235" fill="rgb(1, 255, 254)"/><polygon points="584.8732670279055,262.63746301362664,617.3662263072335,243.87764422693903,649.8591855865616,262.63746301362664,649.8591855865616,300.1571005870019,617.3662263072335,318.9169193736895,584.8732670279055,300.1571005870019,584.8732670279055,262.63746301362664" fill="rgb(1, 255, 254)"/><polygon points="552.3803077485775,318.9169193736895,584.8732670279055,300.1571005870019,617.3662263072335,318.9169193736895,617.3662263072335,356.43655694706473,584.8732670279055,375.19637573375235,552.3803077485775,356.43655694706473,552.3803077485775,318.9169193736895" fill="rgb(1, 255, 254)"/><polygon points="584.8732670279055,375.19637573375235,617.3662263072335,356.43655694706473,649.8591855865616,375.19637573375235,649.8591855865616,412.7160133071276,617.3662263072335,431.4758320938152,584.8732670279055,412.7160133071276,584.8732670279055,375.19637573375235" fill="rgb(1, 255, 254)"/><polygon points="649.8591855865617,262.63746301362664,682.3521448658897,243.87764422693903,714.8451041452178,262.63746301362664,714.8451041452178,300.1571005870019,682.3521448658897,318.9169193736895,649.8591855865617,300.1571005870019,649.8591855865617,262.63746301362664" fill="rgb(1, 255, 254)"/></g><g id="Plovdiv"><polygon points="487.39438918992124,431.4758320938152,519.8873484692493,412.7160133071276,552.3803077485774,431.4758320938152,552.3803077485774,468.99546966719043,519.8873484692493,487.75528845387805,487.39438918992124,468.99546966719043,487.39438918992124,431.4758320938152" fill="rgb(167, 87, 64)"/><polygon points="519.8873484692493,487.75528845387805,552.3803077485774,468.99546966719043,584.8732670279054,487.75528845387805,584.8732670279054,525.2749260272533,552.3803077485774,544.034744813941,519.8873484692493,525.2749260272533,519.8873484692493,487.75528845387805" fill="rgb(167, 87, 64)"/><polygon points="552.3803077485775,431.4758320938152,584.8732670279055,412.7160133071276,617.3662263072335,431.4758320938152,617.3662263072335,468.99546966719043,584.8732670279055,487.75528845387805,552.3803077485775,468.99546966719043,552.3803077485775,431.4758320938152" fill="rgb(167, 87, 64)"/><polygon points="584.8732670279055,487.75528845387805,617.3662263072335,468.99546966719043,649.8591855865616,487.75528845387805,649.8591855865616,525.2749260272533,617.3662263072335,544.034744813941,584.8732670279055,525.2749260272533,584.8732670279055,487.75528845387805" fill="rgb(167, 87, 64)"/><polygon points="552.3803077485775,544.034744813941,584.8732670279055,525.2749260272533,617.3662263072335,544.034744813941,617.3662263072335,581.5543823873161,584.8732670279055,600.3142011740038,552.3803077485775,581.5543823873161,552.3803077485775,544.034744813941" fill="rgb(167, 87, 64)"/><polygon points="584.8732670279055,600.3142011740038,617.3662263072335,581.5543823873162,649.8591855865616,600.3142011740038,649.8591855865616,637.8338387473791,617.3662263072335,656.5936575340667,584.8732670279055,637.8338387473791,584.8732670279055,600.3142011740038" fill="rgb(167, 87, 64)"/><polygon points="552.3803077485775,656.5936575340666,584.8732670279055,637.833838747379,617.3662263072335,656.5936575340666,617.3662263072335,694.1132951074419,584.8732670279055,712.8731138941295,552.3803077485775,694.1132951074419,552.3803077485775,656.5936575340666" fill="rgb(167, 87, 64)"/><polygon points="617.3662263072337,431.4758320938152,649.8591855865617,412.7160133071276,682.3521448658897,431.4758320938152,682.3521448658897,468.99546966719043,649.8591855865617,487.75528845387805,617.3662263072337,468.99546966719043,617.3662263072337,431.4758320938152" fill="rgb(167, 87, 64)"/><polygon points="649.8591855865617,487.75528845387805,682.3521448658897,468.99546966719043,714.8451041452178,487.75528845387805,714.8451041452178,525.2749260272533,682.3521448658897,544.034744813941,649.8591855865617,525.2749260272533,649.8591855865617,487.75528845387805" fill="rgb(167, 87, 64)"/><polygon points="617.3662263072337,544.034744813941,649.8591855865617,525.2749260272533,682.3521448658897,544.034744813941,682.3521448658897,581.5543823873161,649.8591855865617,600.3142011740038,617.3662263072337,581.5543823873161,617.3662263072337,544.034744813941" fill="rgb(167, 87, 64)"/><polygon points="649.8591855865617,600.3142011740038,682.3521448658897,581.5543823873162,714.8451041452178,600.3142011740038,714.8451041452178,637.8338387473791,682.3521448658897,656.5936575340667,649.8591855865617,637.8338387473791,649.8591855865617,600.3142011740038" fill="rgb(167, 87, 64)"/><polygon points="617.3662263072337,656.5936575340666,649.8591855865617,637.833838747379,682.3521448658897,656.5936575340666,682.3521448658897,694.1132951074419,649.8591855865617,712.8731138941295,617.3662263072337,694.1132951074419,617.3662263072337,656.5936575340666" fill="rgb(167, 87, 64)"/><polygon points="682.3521448658898,656.5936575340666,714.8451041452179,637.833838747379,747.3380634245459,656.5936575340666,747.3380634245459,694.1132951074419,714.8451041452179,712.8731138941295,682.3521448658898,694.1132951074419,682.3521448658898,656.5936575340666" fill="rgb(167, 87, 64)"/></g><g id="Smolyan"><polygon points="519.8873484692493,712.8731138941293,552.3803077485774,694.1132951074418,584.8732670279054,712.8731138941293,584.8732670279054,750.3927514675047,552.3803077485774,769.1525702541923,519.8873484692493,750.3927514675047,519.8873484692493,712.8731138941293" fill="rgb(255, 177, 103)"/><polygon points="487.39438918992124,769.1525702541924,519.8873484692493,750.3927514675047,552.3803077485774,769.1525702541924,552.3803077485774,806.6722078275675,519.8873484692493,825.4320266142552,487.39438918992124,806.6722078275675,487.39438918992124,769.1525702541924" fill="rgb(255, 177, 103)"/><polygon points="584.8732670279055,712.8731138941293,617.3662263072335,694.1132951074418,649.8591855865616,712.8731138941293,649.8591855865616,750.3927514675047,617.3662263072335,769.1525702541923,584.8732670279055,750.3927514675047,584.8732670279055,712.8731138941293" fill="rgb(255, 177, 103)"/><polygon points="552.3803077485775,769.1525702541924,584.8732670279055,750.3927514675047,617.3662263072335,769.1525702541924,617.3662263072335,806.6722078275675,584.8732670279055,825.4320266142552,552.3803077485775,806.6722078275675,552.3803077485775,769.1525702541924" fill="rgb(255, 177, 103)"/><polygon points="584.8732670279055,825.4320266142552,617.3662263072335,806.6722078275676,649.8591855865616,825.4320266142552,649.8591855865616,862.9516641876305,617.3662263072335,881.7114829743181,584.8732670279055,862.9516641876305,584.8732670279055,825.4320266142552" fill="rgb(255, 177, 103)"/><polygon points="617.3662263072337,769.1525702541924,649.8591855865617,750.3927514675047,682.3521448658897,769.1525702541924,682.3521448658897,806.6722078275675,649.8591855865617,825.4320266142552,617.3662263072337,806.6722078275675,617.3662263072337,769.1525702541924" fill="rgb(255, 177, 103)"/><polygon points="649.8591855865617,825.4320266142552,682.3521448658897,806.6722078275676,714.8451041452178,825.4320266142552,714.8451041452178,862.9516641876305,682.3521448658897,881.7114829743181,649.8591855865617,862.9516641876305,649.8591855865617,825.4320266142552" fill="rgb(255, 177, 103)"/></g><g id="Gabrovo"><polygon points="617.3662263072337,318.9169193736895,649.8591855865617,300.1571005870019,682.3521448658897,318.9169193736895,682.3521448658897,356.43655694706473,649.8591855865617,375.19637573375235,617.3662263072337,356.43655694706473,617.3662263072337,318.9169193736895" fill="rgb(255, 0, 0)"/><polygon points="649.8591855865617,375.19637573375235,682.3521448658897,356.43655694706473,714.8451041452178,375.19637573375235,714.8451041452178,412.7160133071276,682.3521448658897,431.4758320938152,649.8591855865617,412.7160133071276,649.8591855865617,375.19637573375235" fill="rgb(255, 0, 0)"/><polygon points="682.3521448658898,318.9169193736895,714.8451041452179,300.1571005870019,747.3380634245459,318.9169193736895,747.3380634245459,356.43655694706473,714.8451041452179,375.19637573375235,682.3521448658898,356.43655694706473,682.3521448658898,318.9169193736895" fill="rgb(255, 0, 0)"/><polygon points="714.8451041452179,375.19637573375235,747.3380634245459,356.43655694706473,779.8310227038739,375.19637573375235,779.8310227038739,412.7160133071276,747.3380634245459,431.4758320938152,714.8451041452179,412.7160133071276,714.8451041452179,375.19637573375235" fill="rgb(255, 0, 0)"/></g><g id="Kardzhali"><polygon points="649.8591855865617,712.8731138941293,682.3521448658897,694.1132951074418,714.8451041452178,712.8731138941293,714.8451041452178,750.3927514675047,682.3521448658897,769.1525702541923,649.8591855865617,750.3927514675047,649.8591855865617,712.8731138941293" fill="rgb(0, 155, 255)"/><polygon points="682.3521448658898,769.1525702541924,714.8451041452179,750.3927514675047,747.3380634245459,769.1525702541924,747.3380634245459,806.6722078275675,714.8451041452179,825.4320266142552,682.3521448658898,806.6722078275675,682.3521448658898,769.1525702541924" fill="rgb(0, 155, 255)"/><polygon points="714.8451041452179,825.4320266142552,747.3380634245459,806.6722078275676,779.8310227038739,825.4320266142552,779.8310227038739,862.9516641876305,747.3380634245459,881.7114829743181,714.8451041452179,862.9516641876305,714.8451041452179,825.4320266142552" fill="rgb(0, 155, 255)"/><polygon points="747.3380634245459,769.1525702541924,779.8310227038739,750.3927514675047,812.323981983202,769.1525702541924,812.323981983202,806.6722078275675,779.8310227038739,825.4320266142552,747.3380634245459,806.6722078275675,747.3380634245459,769.1525702541924" fill="rgb(0, 155, 255)"/><polygon points="779.831022703874,825.4320266142552,812.3239819832021,806.6722078275676,844.8169412625301,825.4320266142552,844.8169412625301,862.9516641876305,812.3239819832021,881.7114829743181,779.831022703874,862.9516641876305,779.831022703874,825.4320266142552" fill="rgb(0, 155, 255)"/><polygon points="844.8169412625302,825.4320266142552,877.3099005418583,806.6722078275676,909.8028598211863,825.4320266142552,909.8028598211863,862.9516641876305,877.3099005418583,881.7114829743181,844.8169412625302,862.9516641876305,844.8169412625302,825.4320266142552" fill="rgb(0, 155, 255)"/></g><g id="Veliko Tarnovo"><polygon points="714.8451041452179,150.07855029350094,747.3380634245459,131.31873150681332,779.8310227038739,150.07855029350094,779.8310227038739,187.59818786687617,747.3380634245459,206.3580066535638,714.8451041452179,187.59818786687617,714.8451041452179,150.07855029350094" fill="rgb(255, 219, 102)"/><polygon points="682.3521448658898,206.3580066535638,714.8451041452179,187.59818786687617,747.3380634245459,206.3580066535638,747.3380634245459,243.87764422693903,714.8451041452179,262.63746301362664,682.3521448658898,243.87764422693903,682.3521448658898,206.3580066535638" fill="rgb(255, 219, 102)"/><polygon points="714.8451041452179,262.63746301362664,747.3380634245459,243.87764422693903,779.8310227038739,262.63746301362664,779.8310227038739,300.1571005870019,747.3380634245459,318.9169193736895,714.8451041452179,300.1571005870019,714.8451041452179,262.63746301362664" fill="rgb(255, 219, 102)"/><polygon points="747.3380634245459,206.3580066535638,779.8310227038739,187.59818786687617,812.323981983202,206.3580066535638,812.323981983202,243.87764422693903,779.8310227038739,262.63746301362664,747.3380634245459,243.87764422693903,747.3380634245459,206.3580066535638" fill="rgb(255, 219, 102)"/><polygon points="779.831022703874,262.63746301362664,812.3239819832021,243.87764422693903,844.8169412625301,262.63746301362664,844.8169412625301,300.1571005870019,812.3239819832021,318.9169193736895,779.831022703874,300.1571005870019,779.831022703874,262.63746301362664" fill="rgb(255, 219, 102)"/><polygon points="747.3380634245459,318.9169193736895,779.8310227038739,300.1571005870019,812.323981983202,318.9169193736895,812.323981983202,356.43655694706473,779.8310227038739,375.19637573375235,747.3380634245459,356.43655694706473,747.3380634245459,318.9169193736895" fill="rgb(255, 219, 102)"/><polygon points="779.831022703874,375.19637573375235,812.3239819832021,356.43655694706473,844.8169412625301,375.19637573375235,844.8169412625301,412.7160133071276,812.3239819832021,431.4758320938152,779.831022703874,412.7160133071276,779.831022703874,375.19637573375235" fill="rgb(255, 219, 102)"/><polygon points="844.8169412625302,262.63746301362664,877.3099005418583,243.87764422693903,909.8028598211863,262.63746301362664,909.8028598211863,300.1571005870019,877.3099005418583,318.9169193736895,844.8169412625302,300.1571005870019,844.8169412625302,262.63746301362664" fill="rgb(255, 219, 102)"/><polygon points="812.3239819832021,318.9169193736895,844.8169412625301,300.1571005870019,877.3099005418582,318.9169193736895,877.3099005418582,356.43655694706473,844.8169412625301,375.19637573375235,812.3239819832021,356.43655694706473,812.3239819832021,318.9169193736895" fill="rgb(255, 219, 102)"/><polygon points="844.8169412625302,375.19637573375235,877.3099005418583,356.43655694706473,909.8028598211863,375.19637573375235,909.8028598211863,412.7160133071276,877.3099005418583,431.4758320938152,844.8169412625302,412.7160133071276,844.8169412625302,375.19637573375235" fill="rgb(255, 219, 102)"/></g><g id="Stara Zagora"><polygon points="682.3521448658898,431.4758320938152,714.8451041452179,412.7160133071276,747.3380634245459,431.4758320938152,747.3380634245459,468.99546966719043,714.8451041452179,487.75528845387805,682.3521448658898,468.99546966719043,682.3521448658898,431.4758320938152" fill="rgb(107, 104, 130)"/><polygon points="714.8451041452179,487.75528845387805,747.3380634245459,468.99546966719043,779.8310227038739,487.75528845387805,779.8310227038739,525.2749260272533,747.3380634245459,544.034744813941,714.8451041452179,525.2749260272533,714.8451041452179,487.75528845387805" fill="rgb(107, 104, 130)"/><polygon points="682.3521448658898,544.034744813941,714.8451041452179,525.2749260272533,747.3380634245459,544.034744813941,747.3380634245459,581.5543823873161,714.8451041452179,600.3142011740038,682.3521448658898,581.5543823873161,682.3521448658898,544.034744813941" fill="rgb(107, 104, 130)"/><polygon points="714.8451041452179,600.3142011740038,747.3380634245459,581.5543823873162,779.8310227038739,600.3142011740038,779.8310227038739,637.8338387473791,747.3380634245459,656.5936575340667,714.8451041452179,637.8338387473791,714.8451041452179,600.3142011740038" fill="rgb(107, 104, 130)"/><polygon points="747.3380634245459,431.4758320938152,779.8310227038739,412.7160133071276,812.323981983202,431.4758320938152,812.323981983202,468.99546966719043,779.8310227038739,487.75528845387805,747.3380634245459,468.99546966719043,747.3380634245459,431.4758320938152" fill="rgb(107, 104, 130)"/><polygon points="779.831022703874,487.75528845387805,812.3239819832021,468.99546966719043,844.8169412625301,487.75528845387805,844.8169412625301,525.2749260272533,812.3239819832021,544.034744813941,779.831022703874,525.2749260272533,779.831022703874,487.75528845387805" fill="rgb(107, 104, 130)"/><polygon points="747.3380634245459,544.034744813941,779.8310227038739,525.2749260272533,812.323981983202,544.034744813941,812.323981983202,581.5543823873161,779.8310227038739,600.3142011740038,747.3380634245459,581.5543823873161,747.3380634245459,544.034744813941" fill="rgb(107, 104, 130)"/><polygon points="812.3239819832021,431.4758320938152,844.8169412625301,412.7160133071276,877.3099005418582,431.4758320938152,877.3099005418582,468.99546966719043,844.8169412625301,487.75528845387805,812.3239819832021,468.99546966719043,812.3239819832021,431.4758320938152" fill="rgb(107, 104, 130)"/><polygon points="812.3239819832021,544.034744813941,844.8169412625301,525.2749260272533,877.3099005418582,544.034744813941,877.3099005418582,581.5543823873161,844.8169412625301,600.3142011740038,812.3239819832021,581.5543823873161,812.3239819832021,544.034744813941" fill="rgb(107, 104, 130)"/></g><g id="Haskovo"><polygon points="714.8451041452179,712.8731138941293,747.3380634245459,694.1132951074418,779.8310227038739,712.8731138941293,779.8310227038739,750.3927514675047,747.3380634245459,769.1525702541923,714.8451041452179,750.3927514675047,714.8451041452179,712.8731138941293" fill="rgb(0, 95, 57)"/><polygon points="779.831022703874,600.3142011740038,812.3239819832021,581.5543823873162,844.8169412625301,600.3142011740038,844.8169412625301,637.8338387473791,812.3239819832021,656.5936575340667,779.831022703874,637.8338387473791,779.831022703874,600.3142011740038" fill="rgb(0, 95, 57)"/><polygon points="747.3380634245459,656.5936575340666,779.8310227038739,637.833838747379,812.323981983202,656.5936575340666,812.323981983202,694.1132951074419,779.8310227038739,712.8731138941295,747.3380634245459,694.1132951074419,747.3380634245459,656.5936575340666" fill="rgb(0, 95, 57)"/><polygon points="779.831022703874,712.8731138941293,812.3239819832021,694.1132951074418,844.8169412625301,712.8731138941293,844.8169412625301,750.3927514675047,812.3239819832021,769.1525702541923,779.831022703874,750.3927514675047,779.831022703874,712.8731138941293" fill="rgb(0, 95, 57)"/><polygon points="844.8169412625302,600.3142011740038,877.3099005418583,581.5543823873162,909.8028598211863,600.3142011740038,909.8028598211863,637.8338387473791,877.3099005418583,656.5936575340667,844.8169412625302,637.8338387473791,844.8169412625302,600.3142011740038" fill="rgb(0, 95, 57)"/><polygon points="812.3239819832021,656.5936575340666,844.8169412625301,637.833838747379,877.3099005418582,656.5936575340666,877.3099005418582,694.1132951074419,844.8169412625301,712.8731138941295,812.3239819832021,694.1132951074419,812.3239819832021,656.5936575340666" fill="rgb(0, 95, 57)"/><polygon points="844.8169412625302,712.8731138941293,877.3099005418583,694.1132951074418,909.8028598211863,712.8731138941293,909.8028598211863,750.3927514675047,877.3099005418583,769.1525702541923,844.8169412625302,750.3927514675047,844.8169412625302,712.8731138941293" fill="rgb(0, 95, 57)"/><polygon points="812.3239819832021,769.1525702541924,844.8169412625301,750.3927514675047,877.3099005418582,769.1525702541924,877.3099005418582,806.6722078275675,844.8169412625301,825.4320266142552,812.3239819832021,806.6722078275675,812.3239819832021,769.1525702541924" fill="rgb(0, 95, 57)"/><polygon points="877.3099005418583,656.5936575340666,909.8028598211863,637.833838747379,942.2958191005143,656.5936575340666,942.2958191005143,694.1132951074419,909.8028598211863,712.8731138941295,877.3099005418583,694.1132951074419,877.3099005418583,656.5936575340666" fill="rgb(0, 95, 57)"/><polygon points="909.8028598211864,712.8731138941293,942.2958191005144,694.1132951074418,974.7887783798425,712.8731138941293,974.7887783798425,750.3927514675047,942.2958191005144,769.1525702541923,909.8028598211864,750.3927514675047,909.8028598211864,712.8731138941293" fill="rgb(0, 95, 57)"/><polygon points="942.2958191005144,656.5936575340666,974.7887783798425,637.833838747379,1007.2817376591705,656.5936575340666,1007.2817376591705,694.1132951074419,974.7887783798425,712.8731138941295,942.2958191005144,694.1132951074419,942.2958191005144,656.5936575340666" fill="rgb(0, 95, 57)"/></g><g id="Ruse"><polygon points="779.831022703874,150.07855029350094,812.3239819832021,131.31873150681332,844.8169412625301,150.07855029350094,844.8169412625301,187.59818786687617,812.3239819832021,206.3580066535638,779.831022703874,187.59818786687617,779.831022703874,150.07855029350094" fill="rgb(254, 137, 0)"/><polygon points="844.8169412625302,150.07855029350094,877.3099005418583,131.31873150681332,909.8028598211863,150.07855029350094,909.8028598211863,187.59818786687617,877.3099005418583,206.3580066535638,844.8169412625302,187.59818786687617,844.8169412625302,150.07855029350094" fill="rgb(254, 137, 0)"/><polygon points="812.3239819832021,206.3580066535638,844.8169412625301,187.59818786687617,877.3099005418582,206.3580066535638,877.3099005418582,243.87764422693903,844.8169412625301,262.63746301362664,812.3239819832021,243.87764422693903,812.3239819832021,206.3580066535638" fill="rgb(254, 137, 0)"/><polygon points="909.8028598211864,37.519637573375235,942.2958191005144,18.759818786687617,974.7887783798425,37.519637573375235,974.7887783798425,75.03927514675047,942.2958191005144,93.79909393343809,909.8028598211864,75.03927514675047,909.8028598211864,37.519637573375235" fill="rgb(254, 137, 0)"/><polygon points="877.3099005418583,93.79909393343809,909.8028598211863,75.03927514675047,942.2958191005143,93.79909393343809,942.2958191005143,131.31873150681332,909.8028598211863,150.07855029350094,877.3099005418583,131.31873150681332,877.3099005418583,93.79909393343809" fill="rgb(254, 137, 0)"/></g><g id="Sliven"><polygon points="844.8169412625302,487.75528845387805,877.3099005418583,468.99546966719043,909.8028598211863,487.75528845387805,909.8028598211863,525.2749260272533,877.3099005418583,544.034744813941,844.8169412625302,525.2749260272533,844.8169412625302,487.75528845387805" fill="rgb(255, 110, 65)"/><polygon points="909.8028598211864,375.19637573375235,942.2958191005144,356.43655694706473,974.7887783798425,375.19637573375235,974.7887783798425,412.7160133071276,942.2958191005144,431.4758320938152,909.8028598211864,412.7160133071276,909.8028598211864,375.19637573375235" fill="rgb(255, 110, 65)"/><polygon points="877.3099005418583,431.4758320938152,909.8028598211863,412.7160133071276,942.2958191005143,431.4758320938152,942.2958191005143,468.99546966719043,909.8028598211863,487.75528845387805,877.3099005418583,468.99546966719043,877.3099005418583,431.4758320938152" fill="rgb(255, 110, 65)"/><polygon points="909.8028598211864,487.75528845387805,942.2958191005144,468.99546966719043,974.7887783798425,487.75528845387805,974.7887783798425,525.2749260272533,942.2958191005144,544.034744813941,909.8028598211864,525.2749260272533,909.8028598211864,487.75528845387805" fill="rgb(255, 110, 65)"/><polygon points="877.3099005418583,544.034744813941,909.8028598211863,525.2749260272533,942.2958191005143,544.034744813941,942.2958191005143,581.5543823873161,909.8028598211863,600.3142011740038,877.3099005418583,581.5543823873161,877.3099005418583,544.034744813941" fill="rgb(255, 110, 65)"/><polygon points="974.7887783798426,375.19637573375235,1007.2817376591706,356.43655694706473,1039.7746969384987,375.19637573375235,1039.7746969384987,412.7160133071276,1007.2817376591706,431.4758320938152,974.7887783798426,412.7160133071276,974.7887783798426,375.19637573375235" fill="rgb(255, 110, 65)"/><polygon points="942.2958191005144,431.4758320938152,974.7887783798425,412.7160133071276,1007.2817376591705,431.4758320938152,1007.2817376591705,468.99546966719043,974.7887783798425,487.75528845387805,942.2958191005144,468.99546966719043,942.2958191005144,431.4758320938152" fill="rgb(255, 110, 65)"/></g><g id="Razgrad"><polygon points="909.8028598211864,150.07855029350094,942.2958191005144,131.31873150681332,974.7887783798425,150.07855029350094,974.7887783798425,187.59818786687617,942.2958191005144,206.3580066535638,909.8028598211864,187.59818786687617,909.8028598211864,150.07855029350094" fill="rgb(144, 251, 146)"/><polygon points="942.2958191005144,93.79909393343809,974.7887783798425,75.03927514675047,1007.2817376591705,93.79909393343809,1007.2817376591705,131.31873150681332,974.7887783798425,150.07855029350094,942.2958191005144,131.31873150681332,942.2958191005144,93.79909393343809" fill="rgb(144, 251, 146)"/><polygon points="974.7887783798426,150.07855029350094,1007.2817376591706,131.31873150681332,1039.7746969384987,150.07855029350094,1039.7746969384987,187.59818786687617,1007.2817376591706,206.3580066535638,974.7887783798426,187.59818786687617,974.7887783798426,150.07855029350094" fill="rgb(144, 251, 146)"/><polygon points="942.2958191005144,206.3580066535638,974.7887783798425,187.59818786687617,1007.2817376591705,206.3580066535638,1007.2817376591705,243.87764422693903,974.7887783798425,262.63746301362664,942.2958191005144,243.87764422693903,942.2958191005144,206.3580066535638" fill="rgb(144, 251, 146)"/><polygon points="1007.2817376591706,93.79909393343809,1039.7746969384987,75.03927514675047,1072.2676562178267,93.79909393343809,1072.2676562178267,131.31873150681332,1039.7746969384987,150.07855029350094,1007.2817376591706,131.31873150681332,1007.2817376591706,93.79909393343809" fill="rgb(144, 251, 146)"/><polygon points="1039.7746969384987,150.07855029350094,1072.2676562178267,131.31873150681332,1104.7606154971547,150.07855029350094,1104.7606154971547,187.59818786687617,1072.2676562178267,206.3580066535638,1039.7746969384987,187.59818786687617,1039.7746969384987,150.07855029350094" fill="rgb(144, 251, 146)"/><polygon points="1007.2817376591706,206.3580066535638,1039.7746969384987,187.59818786687617,1072.2676562178267,206.3580066535638,1072.2676562178267,243.87764422693903,1039.7746969384987,262.63746301362664,1007.2817376591706,243.87764422693903,1007.2817376591706,206.3580066535638" fill="rgb(144, 251, 146)"/></g><g id="Targovishte"><polygon points="877.3099005418583,206.3580066535638,909.8028598211863,187.59818786687617,942.2958191005143,206.3580066535638,942.2958191005143,243.87764422693903,909.8028598211863,262.63746301362664,877.3099005418583,243.87764422693903,877.3099005418583,206.3580066535638" fill="rgb(0, 118, 255)"/><polygon points="909.8028598211864,262.63746301362664,942.2958191005144,243.87764422693903,974.7887783798425,262.63746301362664,974.7887783798425,300.1571005870019,942.2958191005144,318.9169193736895,909.8028598211864,300.1571005870019,909.8028598211864,262.63746301362664" fill="rgb(0, 118, 255)"/><polygon points="877.3099005418583,318.9169193736895,909.8028598211863,300.1571005870019,942.2958191005143,318.9169193736895,942.2958191005143,356.43655694706473,909.8028598211863,375.19637573375235,877.3099005418583,356.43655694706473,877.3099005418583,318.9169193736895" fill="rgb(0, 118, 255)"/><polygon points="974.7887783798426,262.63746301362664,1007.2817376591706,243.87764422693903,1039.7746969384987,262.63746301362664,1039.7746969384987,300.1571005870019,1007.2817376591706,318.9169193736895,974.7887783798426,300.1571005870019,974.7887783798426,262.63746301362664" fill="rgb(0, 118, 255)"/><polygon points="942.2958191005144,318.9169193736895,974.7887783798425,300.1571005870019,1007.2817376591705,318.9169193736895,1007.2817376591705,356.43655694706473,974.7887783798425,375.19637573375235,942.2958191005144,356.43655694706473,942.2958191005144,318.9169193736895" fill="rgb(0, 118, 255)"/></g><g id="Yambol"><polygon points="909.8028598211864,600.3142011740038,942.2958191005144,581.5543823873162,974.7887783798425,600.3142011740038,974.7887783798425,637.8338387473791,942.2958191005144,656.5936575340667,909.8028598211864,637.8338387473791,909.8028598211864,600.3142011740038" fill="rgb(119, 77, 0)"/><polygon points="974.7887783798426,487.75528845387805,1007.2817376591706,468.99546966719043,1039.7746969384987,487.75528845387805,1039.7746969384987,525.2749260272533,1007.2817376591706,544.034744813941,974.7887783798426,525.2749260272533,974.7887783798426,487.75528845387805" fill="rgb(119, 77, 0)"/><polygon points="942.2958191005144,544.034744813941,974.7887783798425,525.2749260272533,1007.2817376591705,544.034744813941,1007.2817376591705,581.5543823873161,974.7887783798425,600.3142011740038,942.2958191005144,581.5543823873161,942.2958191005144,544.034744813941" fill="rgb(119, 77, 0)"/><polygon points="974.7887783798426,600.3142011740038,1007.2817376591706,581.5543823873162,1039.7746969384987,600.3142011740038,1039.7746969384987,637.8338387473791,1007.2817376591706,656.5936575340667,974.7887783798426,637.8338387473791,974.7887783798426,600.3142011740038" fill="rgb(119, 77, 0)"/><polygon points="1007.2817376591706,544.034744813941,1039.7746969384987,525.2749260272533,1072.2676562178267,544.034744813941,1072.2676562178267,581.5543823873161,1039.7746969384987,600.3142011740038,1007.2817376591706,581.5543823873161,1007.2817376591706,544.034744813941" fill="rgb(119, 77, 0)"/><polygon points="1039.7746969384987,600.3142011740038,1072.2676562178267,581.5543823873162,1104.7606154971547,600.3142011740038,1104.7606154971547,637.8338387473791,1072.2676562178267,656.5936575340667,1039.7746969384987,637.8338387473791,1039.7746969384987,600.3142011740038" fill="rgb(119, 77, 0)"/><polygon points="1072.2676562178267,544.034744813941,1104.7606154971547,525.2749260272533,1137.2535747764828,544.034744813941,1137.2535747764828,581.5543823873161,1104.7606154971547,600.3142011740038,1072.2676562178267,581.5543823873161,1072.2676562178267,544.034744813941" fill="rgb(119, 77, 0)"/></g><g id="Silistra"><polygon points="974.7887783798426,37.519637573375235,1007.2817376591706,18.759818786687617,1039.7746969384987,37.519637573375235,1039.7746969384987,75.03927514675047,1007.2817376591706,93.79909393343809,974.7887783798426,75.03927514675047,974.7887783798426,37.519637573375235" fill="rgb(255, 2, 157)"/><polygon points="1039.7746969384987,37.519637573375235,1072.2676562178267,18.759818786687617,1104.7606154971547,37.519637573375235,1104.7606154971547,75.03927514675047,1072.2676562178267,93.79909393343809,1039.7746969384987,75.03927514675047,1039.7746969384987,37.519637573375235" fill="rgb(255, 2, 157)"/><polygon points="1104.760615497155,37.519637573375235,1137.253574776483,18.759818786687617,1169.746534055811,37.519637573375235,1169.746534055811,75.03927514675047,1137.253574776483,93.79909393343809,1104.760615497155,75.03927514675047,1104.760615497155,37.519637573375235" fill="rgb(255, 2, 157)"/><polygon points="1072.2676562178267,93.79909393343809,1104.7606154971547,75.03927514675047,1137.2535747764828,93.79909393343809,1137.2535747764828,131.31873150681332,1104.7606154971547,150.07855029350094,1072.2676562178267,131.31873150681332,1072.2676562178267,93.79909393343809" fill="rgb(255, 2, 157)"/><polygon points="1137.253574776483,93.79909393343809,1169.746534055811,75.03927514675047,1202.239493335139,93.79909393343809,1202.239493335139,131.31873150681332,1169.746534055811,150.07855029350094,1137.253574776483,131.31873150681332,1137.253574776483,93.79909393343809" fill="rgb(255, 2, 157)"/></g><g id="Shumen"><polygon points="1039.7746969384987,262.63746301362664,1072.2676562178267,243.87764422693903,1104.7606154971547,262.63746301362664,1104.7606154971547,300.1571005870019,1072.2676562178267,318.9169193736895,1039.7746969384987,300.1571005870019,1039.7746969384987,262.63746301362664" fill="rgb(213, 255, 0)"/><polygon points="1007.2817376591706,318.9169193736895,1039.7746969384987,300.1571005870019,1072.2676562178267,318.9169193736895,1072.2676562178267,356.43655694706473,1039.7746969384987,375.19637573375235,1007.2817376591706,356.43655694706473,1007.2817376591706,318.9169193736895" fill="rgb(213, 255, 0)"/><polygon points="1104.760615497155,150.07855029350094,1137.253574776483,131.31873150681332,1169.746534055811,150.07855029350094,1169.746534055811,187.59818786687617,1137.253574776483,206.3580066535638,1104.760615497155,187.59818786687617,1104.760615497155,150.07855029350094" fill="rgb(213, 255, 0)"/><polygon points="1072.2676562178267,206.3580066535638,1104.7606154971547,187.59818786687617,1137.2535747764828,206.3580066535638,1137.2535747764828,243.87764422693903,1104.7606154971547,262.63746301362664,1072.2676562178267,243.87764422693903,1072.2676562178267,206.3580066535638" fill="rgb(213, 255, 0)"/><polygon points="1104.760615497155,262.63746301362664,1137.253574776483,243.87764422693903,1169.746534055811,262.63746301362664,1169.746534055811,300.1571005870019,1137.253574776483,318.9169193736895,1104.760615497155,300.1571005870019,1104.760615497155,262.63746301362664" fill="rgb(213, 255, 0)"/><polygon points="1072.2676562178267,318.9169193736895,1104.7606154971547,300.1571005870019,1137.2535747764828,318.9169193736895,1137.2535747764828,356.43655694706473,1104.7606154971547,375.19637573375235,1072.2676562178267,356.43655694706473,1072.2676562178267,318.9169193736895" fill="rgb(213, 255, 0)"/><polygon points="1137.253574776483,206.3580066535638,1169.746534055811,187.59818786687617,1202.239493335139,206.3580066535638,1202.239493335139,243.87764422693903,1169.746534055811,262.63746301362664,1137.253574776483,243.87764422693903,1137.253574776483,206.3580066535638" fill="rgb(213, 255, 0)"/></g><g id="Burgas"><polygon points="1039.7746969384987,375.19637573375235,1072.2676562178267,356.43655694706473,1104.7606154971547,375.19637573375235,1104.7606154971547,412.7160133071276,1072.2676562178267,431.4758320938152,1039.7746969384987,412.7160133071276,1039.7746969384987,375.19637573375235" fill="rgb(255, 0, 246)"/><polygon points="1007.2817376591706,431.4758320938152,1039.7746969384987,412.7160133071276,1072.2676562178267,431.4758320938152,1072.2676562178267,468.99546966719043,1039.7746969384987,487.75528845387805,1007.2817376591706,468.99546966719043,1007.2817376591706,431.4758320938152" fill="rgb(255, 0, 246)"/><polygon points="1039.7746969384987,487.75528845387805,1072.2676562178267,468.99546966719043,1104.7606154971547,487.75528845387805,1104.7606154971547,525.2749260272533,1072.2676562178267,544.034744813941,1039.7746969384987,525.2749260272533,1039.7746969384987,487.75528845387805" fill="rgb(255, 0, 246)"/><polygon points="1104.760615497155,375.19637573375235,1137.253574776483,356.43655694706473,1169.746534055811,375.19637573375235,1169.746534055811,412.7160133071276,1137.253574776483,431.4758320938152,1104.760615497155,412.7160133071276,1104.760615497155,375.19637573375235" fill="rgb(255, 0, 246)"/><polygon points="1072.2676562178267,431.4758320938152,1104.7606154971547,412.7160133071276,1137.2535747764828,431.4758320938152,1137.2535747764828,468.99546966719043,1104.7606154971547,487.75528845387805,1072.2676562178267,468.99546966719043,1072.2676562178267,431.4758320938152" fill="rgb(255, 0, 246)"/><polygon points="1104.760615497155,487.75528845387805,1137.253574776483,468.99546966719043,1169.746534055811,487.75528845387805,1169.746534055811,525.2749260272533,1137.253574776483,544.034744813941,1104.760615497155,525.2749260272533,1104.760615497155,487.75528845387805" fill="rgb(255, 0, 246)"/><polygon points="1104.760615497155,600.3142011740038,1137.253574776483,581.5543823873162,1169.746534055811,600.3142011740038,1169.746534055811,637.8338387473791,1137.253574776483,656.5936575340667,1104.760615497155,637.8338387473791,1104.760615497155,600.3142011740038" fill="rgb(255, 0, 246)"/><polygon points="1137.253574776483,431.4758320938152,1169.746534055811,412.7160133071276,1202.239493335139,431.4758320938152,1202.239493335139,468.99546966719043,1169.746534055811,487.75528845387805,1137.253574776483,468.99546966719043,1137.253574776483,431.4758320938152" fill="rgb(255, 0, 246)"/><polygon points="1169.746534055811,487.75528845387805,1202.239493335139,468.99546966719043,1234.732452614467,487.75528845387805,1234.732452614467,525.2749260272533,1202.239493335139,544.034744813941,1169.746534055811,525.2749260272533,1169.746534055811,487.75528845387805" fill="rgb(255, 0, 246)"/><polygon points="1137.253574776483,544.034744813941,1169.746534055811,525.2749260272533,1202.239493335139,544.034744813941,1202.239493335139,581.5543823873161,1169.746534055811,600.3142011740038,1137.253574776483,581.5543823873161,1137.253574776483,544.034744813941" fill="rgb(255, 0, 246)"/><polygon points="1169.746534055811,600.3142011740038,1202.239493335139,581.5543823873162,1234.732452614467,600.3142011740038,1234.732452614467,637.8338387473791,1202.239493335139,656.5936575340667,1169.746534055811,637.8338387473791,1169.746534055811,600.3142011740038" fill="rgb(255, 0, 246)"/><polygon points="1202.239493335139,431.4758320938152,1234.732452614467,412.7160133071276,1267.2254118937951,431.4758320938152,1267.2254118937951,468.99546966719043,1234.732452614467,487.75528845387805,1202.239493335139,468.99546966719043,1202.239493335139,431.4758320938152" fill="rgb(255, 0, 246)"/><polygon points="1202.239493335139,544.034744813941,1234.732452614467,525.2749260272533,1267.2254118937951,544.034744813941,1267.2254118937951,581.5543823873161,1234.732452614467,600.3142011740038,1202.239493335139,581.5543823873161,1202.239493335139,544.034744813941" fill="rgb(255, 0, 246)"/><polygon points="1234.7324526144673,600.3142011740038,1267.2254118937954,581.5543823873162,1299.7183711731234,600.3142011740038,1299.7183711731234,637.8338387473791,1267.2254118937954,656.5936575340667,1234.7324526144673,637.8338387473791,1234.7324526144673,600.3142011740038" fill="rgb(255, 0, 246)"/><polygon points="1202.239493335139,656.5936575340666,1234.732452614467,637.833838747379,1267.2254118937951,656.5936575340666,1267.2254118937951,694.1132951074419,1234.732452614467,712.8731138941295,1202.239493335139,694.1132951074419,1202.239493335139,656.5936575340666" fill="rgb(255, 0, 246)"/><polygon points="1267.2254118937954,431.4758320938152,1299.7183711731234,412.7160133071276,1332.2113304524514,431.4758320938152,1332.2113304524514,468.99546966719043,1299.7183711731234,487.75528845387805,1267.2254118937954,468.99546966719043,1267.2254118937954,431.4758320938152" fill="rgb(255, 0, 246)"/></g><g id="Dobrich"><polygon points="1169.746534055811,150.07855029350094,1202.239493335139,131.31873150681332,1234.732452614467,150.07855029350094,1234.732452614467,187.59818786687617,1202.239493335139,206.3580066535638,1169.746534055811,187.59818786687617,1169.746534055811,150.07855029350094" fill="rgb(255, 147, 126)"/><polygon points="1202.239493335139,93.79909393343809,1234.732452614467,75.03927514675047,1267.2254118937951,93.79909393343809,1267.2254118937951,131.31873150681332,1234.732452614467,150.07855029350094,1202.239493335139,131.31873150681332,1202.239493335139,93.79909393343809" fill="rgb(255, 147, 126)"/><polygon points="1234.7324526144673,150.07855029350094,1267.2254118937954,131.31873150681332,1299.7183711731234,150.07855029350094,1299.7183711731234,187.59818786687617,1267.2254118937954,206.3580066535638,1234.7324526144673,187.59818786687617,1234.7324526144673,150.07855029350094" fill="rgb(255, 147, 126)"/><polygon points="1267.2254118937954,93.79909393343809,1299.7183711731234,75.03927514675047,1332.2113304524514,93.79909393343809,1332.2113304524514,131.31873150681332,1299.7183711731234,150.07855029350094,1267.2254118937954,131.31873150681332,1267.2254118937954,93.79909393343809" fill="rgb(255, 147, 126)"/><polygon points="1299.7183711731234,150.07855029350094,1332.2113304524514,131.31873150681332,1364.7042897317795,150.07855029350094,1364.7042897317795,187.59818786687617,1332.2113304524514,206.3580066535638,1299.7183711731234,187.59818786687617,1299.7183711731234,150.07855029350094" fill="rgb(255, 147, 126)"/><polygon points="1267.2254118937954,206.3580066535638,1299.7183711731234,187.59818786687617,1332.2113304524514,206.3580066535638,1332.2113304524514,243.87764422693903,1299.7183711731234,262.63746301362664,1267.2254118937954,243.87764422693903,1267.2254118937954,206.3580066535638" fill="rgb(255, 147, 126)"/><polygon points="1364.7042897317795,150.07855029350094,1397.1972490111075,131.31873150681332,1429.6902082904355,150.07855029350094,1429.6902082904355,187.59818786687617,1397.1972490111075,206.3580066535638,1364.7042897317795,187.59818786687617,1364.7042897317795,150.07855029350094" fill="rgb(255, 147, 126)"/><polygon points="1332.2113304524514,206.3580066535638,1364.7042897317795,187.59818786687617,1397.1972490111075,206.3580066535638,1397.1972490111075,243.87764422693903,1364.7042897317795,262.63746301362664,1332.2113304524514,243.87764422693903,1332.2113304524514,206.3580066535638" fill="rgb(255, 147, 126)"/><polygon points="1397.1972490111077,206.3580066535638,1429.6902082904357,187.59818786687617,1462.1831675697638,206.3580066535638,1462.1831675697638,243.87764422693903,1429.6902082904357,262.63746301362664,1397.1972490111077,243.87764422693903,1397.1972490111077,206.3580066535638" fill="rgb(255, 147, 126)"/></g><g id="Varna"><polygon points="1169.746534055811,262.63746301362664,1202.239493335139,243.87764422693903,1234.732452614467,262.63746301362664,1234.732452614467,300.1571005870019,1202.239493335139,318.9169193736895,1169.746534055811,300.1571005870019,1169.746534055811,262.63746301362664" fill="rgb(106, 130, 108)"/><polygon points="1137.253574776483,318.9169193736895,1169.746534055811,300.1571005870019,1202.239493335139,318.9169193736895,1202.239493335139,356.43655694706473,1169.746534055811,375.19637573375235,1137.253574776483,356.43655694706473,1137.253574776483,318.9169193736895" fill="rgb(106, 130, 108)"/><polygon points="1169.746534055811,375.19637573375235,1202.239493335139,356.43655694706473,1234.732452614467,375.19637573375235,1234.732452614467,412.7160133071276,1202.239493335139,431.4758320938152,1169.746534055811,412.7160133071276,1169.746534055811,375.19637573375235" fill="rgb(106, 130, 108)"/><polygon points="1202.239493335139,206.3580066535638,1234.732452614467,187.59818786687617,1267.2254118937951,206.3580066535638,1267.2254118937951,243.87764422693903,1234.732452614467,262.63746301362664,1202.239493335139,243.87764422693903,1202.239493335139,206.3580066535638" fill="rgb(106, 130, 108)"/><polygon points="1234.7324526144673,262.63746301362664,1267.2254118937954,243.87764422693903,1299.7183711731234,262.63746301362664,1299.7183711731234,300.1571005870019,1267.2254118937954,318.9169193736895,1234.7324526144673,300.1571005870019,1234.7324526144673,262.63746301362664" fill="rgb(106, 130, 108)"/><polygon points="1202.239493335139,318.9169193736895,1234.732452614467,300.1571005870019,1267.2254118937951,318.9169193736895,1267.2254118937951,356.43655694706473,1234.732452614467,375.19637573375235,1202.239493335139,356.43655694706473,1202.239493335139,318.9169193736895" fill="rgb(106, 130, 108)"/><polygon points="1234.7324526144673,375.19637573375235,1267.2254118937954,356.43655694706473,1299.7183711731234,375.19637573375235,1299.7183711731234,412.7160133071276,1267.2254118937954,431.4758320938152,1234.7324526144673,412.7160133071276,1234.7324526144673,375.19637573375235" fill="rgb(106, 130, 108)"/><polygon points="1267.2254118937954,318.9169193736895,1299.7183711731234,300.1571005870019,1332.2113304524514,318.9169193736895,1332.2113304524514,356.43655694706473,1299.7183711731234,375.19637573375235,1267.2254118937954,356.43655694706473,1267.2254118937954,318.9169193736895" fill="rgb(106, 130, 108)"/></g></svg>